<svg xmlns="http://www.w3.org/2000/svg" width="21" height="21" viewBox="0 0 21 21">
    <g fill="none" fill-rule="evenodd">
        <g fill-rule="nonzero">
            <g>
                <g>
                    <g fill="#455A64" transform="translate(-216 -45) translate(206 35) translate(10 10) translate(5.475 15.537)">
                        <ellipse cx="11.405" cy="2.297" rx="2.281" ry="2.283"/>
                        <ellipse cx="2.281" cy="2.297" rx="2.281" ry="2.283"/>
                    </g>
                    <path fill="#FFC107" d="M20.872 2.922c-.087-.098-.212-.154-.342-.154H4.106c-.252 0-.456.204-.456.457 0 .03.003.06.009.091l1.825 9.131c.043.213.23.365.447.365.02.002.04.002.06 0l13.686-1.826c.206-.027.367-.19.393-.396l.912-7.305c.018-.131-.023-.263-.11-.363z" transform="translate(-216 -45) translate(206 35) translate(10 10)"/>
                    <g fill="#FAFAFA">
                        <path d="M1.383 6.406c-.223 0-.413-.161-.45-.381L.021.545C-.013.297.16.067.41.033.651 0 .874.16.921.396l.912 5.479c.04.249-.127.483-.375.525-.025.004-.05.006-.075.006zM3.664 5.95c-.237 0-.435-.18-.456-.416L2.752.512c-.024-.25.16-.474.411-.497h.004c.25-.023.472.162.495.413l.456 5.022c.023.251-.162.473-.413.496l-.041.004zM5.945 5.493c-.252 0-.456-.204-.456-.456V.47c0-.252.204-.457.456-.457s.456.205.456.457v4.566c0 .252-.204.456-.456.456zM8.226 5.037h-.051c-.25-.027-.432-.252-.406-.502V4.53L8.227.42c.03-.25.255-.431.506-.406.25.028.431.254.404.504l-.456 4.11c-.025.232-.22.408-.454.409zM10.507 4.58c-.252 0-.456-.205-.456-.457 0-.037.005-.074.014-.11l.912-3.652c.055-.246.3-.401.545-.346.246.056.4.3.345.546l-.005.02-.912 3.653c-.051.203-.233.346-.443.346z" transform="translate(-216 -45) translate(206 35) translate(10 10) translate(6.373 4.58)"/>
                    </g>
                    <path fill="#455A64" d="M18.705 14.639H8.175c-1.521-.004-2.83-1.077-3.132-2.569L2.819.942H.456C.204.942 0 .737 0 .485S.204.03.456.03h2.737c.217 0 .404.152.448.365L5.938 11.89c.215 1.066 1.15 1.833 2.236 1.835h10.53c.253 0 .457.205.457.457s-.204.457-.456.457z" transform="translate(-216 -45) translate(206 35) translate(10 10)"/>
                </g>
            </g>
        </g>
    </g>
</svg>
